<?xml version="1.0" encoding="utf-8" ?>
<svg baseProfile="full" height="716" version="1.1" width="2048" xmlns="http://www.w3.org/2000/svg" xmlns:ev="http://www.w3.org/2001/xml-events" xmlns:xlink="http://www.w3.org/1999/xlink"><defs /><polygon fill="rgb(210,190,150)" points="475,372 475,391 474,392 281,392 281,402 280,403 225,403 225,411 473,411 475,413 475,432 473,434 339,434 339,443 338,444 281,444 281,453 474,453 475,454 475,474 474,475 396,475 396,484 394,486 339,486 339,494 473,494 475,496 475,515 473,517 435,517 435,526 434,527 396,527 396,536 535,536 535,413 533,411 532,411 530,409 529,409 527,407 526,407 524,405 523,405 520,402 519,402 518,401 517,401 515,399 514,399 511,396 510,396 509,395 508,395 505,392 504,392 503,391 502,391 500,389 499,389 496,386 495,386 494,385 493,385 491,383 490,383 488,381 487,381 485,379 484,379 481,376 480,376 479,375 478,375" /><polygon fill="rgb(210,190,150)" points="203,372 202,373 201,373 199,375 198,375 196,377 195,377 193,379 192,379 190,381 189,381 187,383 186,383 184,385 183,385 181,387 180,387 178,389 177,389 175,391 174,391 172,393 171,393 169,395 168,395 166,397 165,397 163,399 162,399 160,401 159,401 157,403 156,403 154,405 153,405 151,407 150,407 148,409 147,409 145,411 144,411 142,413 142,536 203,536" /><polygon fill="rgb(210,190,150)" points="1364,352 1364,398 1484,398 1484,352" /><polygon fill="rgb(210,190,150)" points="205,309 205,370 473,370 473,309" /><polygon fill="rgb(210,190,150)" points="1207,286 1207,287 1209,289 1209,290 1211,292 1211,293 1212,294 1212,295 1215,298 1215,299 1216,300 1216,301 1218,303 1218,304 1220,306 1220,307 1222,309 1222,310 1224,312 1224,313 1226,315 1226,316 1227,317 1227,318 1230,321 1230,322 1232,324 1232,325 1233,326 1233,327 1236,330 1236,331 1237,332 1237,333 1239,335 1239,336 1241,338 1241,339 1243,341 1243,342 1245,344 1245,345 1247,347 1247,348 1248,349 1248,350 1251,353 1251,354 1253,356 1253,357 1254,358 1254,359 1256,361 1256,362 1258,364 1258,365 1260,367 1260,368 1262,370 1262,371 1264,373 1264,374 1263,375 1263,376 1261,378 1261,379 1259,381 1259,382 1257,384 1257,385 1255,387 1255,388 1253,390 1253,391 1252,392 1252,393 1249,396 1249,397 1248,398 1248,399 1245,402 1245,403 1243,405 1243,406 1242,407 1242,408 1240,410 1240,411 1238,413 1238,414 1236,416 1236,417 1234,419 1234,420 1232,422 1232,423 1230,425 1230,426 1228,428 1228,429 1226,431 1226,432 1224,434 1224,435 1222,437 1222,438 1220,440 1220,441 1218,443 1218,444 1216,446 1216,447 1214,449 1214,450 1212,452 1212,453 1211,454 1211,455 1209,457 1209,458 1206,461 1206,462 1265,462 1267,460 1267,459 1269,457 1269,456 1271,454 1271,453 1273,451 1273,450 1275,448 1275,447 1277,445 1277,444 1279,442 1279,441 1281,439 1281,438 1283,436 1283,435 1285,433 1285,432 1286,431 1286,430 1289,427 1289,426 1290,425 1290,424 1292,422 1292,421 1293,420 1294,420 1296,422 1296,423 1299,426 1299,427 1300,428 1300,429 1302,431 1302,432 1304,434 1304,435 1306,437 1306,438 1308,440 1308,441 1310,443 1310,444 1311,445 1311,446 1314,449 1314,450 1315,451 1315,452 1317,454 1317,455 1319,457 1319,458 1321,460 1321,461 1322,462 1381,462 1381,461 1380,460 1380,459 1378,457 1378,456 1376,454 1376,453 1374,451 1374,450 1372,448 1372,447 1370,445 1370,444 1368,442 1368,441 1366,439 1366,438 1364,436 1364,435 1363,434 1363,433 1360,430 1360,429 1358,427 1358,426 1357,425 1357,424 1354,421 1354,420 1353,419 1353,418 1350,415 1350,414 1348,412 1348,411 1347,410 1347,409 1344,406 1344,405 1343,404 1343,403 1341,401 1341,400 1339,398 1339,397 1337,395 1337,394 1335,392 1335,391 1333,389 1333,388 1332,387 1332,386 1329,383 1329,382 1327,380 1327,379 1325,377 1325,376 1324,375 1324,372 1327,369 1327,368 1328,367 1328,366 1330,364 1330,363 1332,361 1332,360 1334,358 1334,357 1336,355 1336,354 1338,352 1338,351 1340,349 1340,348 1342,346 1342,345 1343,344 1343,343 1345,341 1345,340 1347,338 1347,337 1349,335 1349,334 1351,332 1351,331 1353,329 1353,328 1354,327 1354,326 1357,323 1357,322 1358,321 1358,320 1360,318 1360,317 1363,314 1363,313 1364,312 1364,311 1366,309 1366,308 1368,306 1368,305 1370,303 1370,302 1372,300 1372,299 1374,297 1374,296 1375,295 1375,294 1378,291 1378,290 1379,289 1379,288 1381,286 1322,286 1321,287 1321,288 1320,289 1320,290 1317,293 1317,294 1316,295 1316,296 1314,298 1314,299 1311,302 1311,303 1310,304 1310,305 1308,307 1308,308 1306,310 1306,311 1304,313 1304,314 1302,316 1302,317 1300,319 1300,320 1298,322 1298,323 1296,325 1296,326 1294,328 1293,328 1291,326 1291,325 1290,324 1290,323 1287,320 1287,319 1285,317 1285,316 1284,315 1284,314 1281,311 1281,310 1280,309 1280,308 1277,305 1277,304 1275,302 1275,301 1274,300 1274,299 1271,296 1271,295 1270,294 1270,293 1268,291 1268,290 1266,288 1266,287 1265,286" /><polygon fill="rgb(210,190,150)" points="1141,286 1141,462 1193,462 1194,461 1195,462 1195,286" /><polygon fill="rgb(210,190,150)" points="951,283 950,284 944,284 943,285 939,285 938,286 935,286 934,287 931,287 930,288 929,288 928,289 926,289 925,290 924,290 923,291 922,291 921,292 920,292 919,293 918,293 917,294 916,294 914,296 913,296 911,298 910,298 907,301 906,301 897,310 897,311 893,315 893,316 891,318 891,319 888,322 888,323 887,324 887,325 886,326 886,327 885,328 885,329 884,330 884,331 883,332 883,333 882,334 882,336 881,337 881,339 880,340 880,342 879,343 879,345 878,346 878,349 877,350 877,354 876,355 876,362 875,363 875,383 876,384 876,390 877,391 877,396 878,397 878,399 879,400 879,402 880,403 880,405 881,406 881,408 882,409 882,411 883,412 883,413 884,414 884,415 885,416 885,417 886,418 886,419 887,420 887,421 888,422 888,423 890,425 890,426 892,428 892,429 894,431 894,432 898,436 898,437 900,439 901,439 908,446 909,446 912,449 913,449 915,451 916,451 917,452 918,452 920,454 921,454 922,455 923,455 924,456 925,456 926,457 928,457 929,458 930,458 931,459 933,459 934,460 936,460 937,461 940,461 941,462 945,462 946,463 950,463 951,464 982,464 983,463 988,463 989,462 993,462 994,461 997,461 998,460 1001,460 1002,459 1004,459 1005,458 1007,458 1008,457 1009,457 1010,456 1011,456 1012,455 1013,455 1014,454 1016,454 1018,452 1019,452 1020,451 1021,451 1023,449 1024,449 1027,446 1028,446 1032,442 1033,442 1034,441 1034,440 1040,434 1040,433 1042,431 1042,430 1044,428 1044,427 1045,426 1045,425 1046,424 1046,423 1047,422 1047,421 1048,420 1048,419 1049,418 1049,416 1050,415 1050,412 1051,411 1051,407 1052,406 1052,404 997,404 997,405 995,407 995,408 988,415 987,415 986,416 985,416 984,417 982,417 981,418 979,418 978,419 973,419 972,420 963,420 962,419 957,419 956,418 953,418 952,417 950,417 949,416 948,416 946,414 945,414 943,412 942,412 938,408 938,407 935,404 935,403 934,402 934,401 932,399 932,398 931,397 931,395 930,394 930,391 929,390 931,388 1053,388 1053,361 1052,360 1052,355 1051,354 1051,350 1050,349 1050,346 1049,345 1049,343 1048,342 1048,340 1047,339 1047,337 1046,336 1046,335 1045,334 1045,332 1044,331 1044,330 1043,329 1043,328 1041,326 1041,325 1040,324 1040,323 1039,322 1039,321 1037,319 1037,318 1034,315 1034,314 1029,309 1029,308 1028,307 1027,307 1021,301 1020,301 1017,298 1016,298 1014,296 1013,296 1012,295 1011,295 1009,293 1008,293 1007,292 1005,292 1004,291 1003,291 1002,290 1001,290 1000,289 998,289 997,288 996,288 995,287 992,287 991,286 988,286 987,285 982,285 981,284 975,284 974,283" /><polygon fill="rgb(210,190,150)" points="1733,217 1733,462 1836,462 1837,461 1851,461 1852,460 1858,460 1859,459 1864,459 1865,458 1867,458 1868,457 1870,457 1871,456 1873,456 1874,455 1876,455 1877,454 1879,454 1880,453 1881,453 1882,452 1884,452 1885,451 1886,451 1887,450 1888,450 1889,449 1890,449 1892,447 1893,447 1895,445 1896,445 1899,442 1900,442 1910,432 1910,431 1913,428 1913,427 1914,426 1914,425 1916,423 1916,422 1917,421 1917,420 1918,419 1918,417 1919,416 1919,414 1920,413 1920,412 1921,411 1921,408 1922,407 1922,403 1923,402 1923,392 1924,391 1924,386 1923,385 1923,375 1922,374 1922,370 1921,369 1921,367 1920,366 1920,365 1919,364 1919,362 1918,361 1918,360 1917,359 1917,358 1916,357 1916,356 1914,354 1914,353 1912,351 1912,350 1907,345 1907,344 1906,344 1899,337 1898,337 1895,334 1894,334 1893,333 1892,333 1890,331 1889,331 1888,330 1887,330 1886,329 1885,329 1884,328 1884,327 1886,325 1887,325 1889,323 1890,323 1899,314 1899,313 1902,310 1902,309 1904,307 1904,306 1905,305 1905,304 1906,303 1906,302 1907,301 1907,299 1908,298 1908,296 1909,295 1909,292 1910,291 1910,287 1911,286 1911,271 1910,270 1910,265 1909,264 1909,261 1908,260 1908,258 1907,257 1907,255 1906,254 1906,253 1905,252 1905,251 1904,250 1904,249 1902,247 1902,246 1899,243 1899,242 1891,234 1890,234 1887,231 1886,231 1884,229 1883,229 1882,228 1881,228 1880,227 1879,227 1878,226 1877,226 1876,225 1875,225 1874,224 1872,224 1871,223 1870,223 1869,222 1867,222 1866,221 1864,221 1863,220 1861,220 1860,219 1855,219 1854,218 1849,218 1848,217" /><polygon fill="rgb(210,190,150)" points="1501,217 1501,461 1502,462 1588,462 1589,461 1605,461 1606,460 1613,460 1614,459 1619,459 1620,458 1623,458 1624,457 1627,457 1628,456 1631,456 1632,455 1634,455 1635,454 1638,454 1639,453 1640,453 1641,452 1643,452 1644,451 1645,451 1646,450 1648,450 1649,449 1650,449 1651,448 1652,448 1653,447 1654,447 1655,446 1656,446 1657,445 1658,445 1659,444 1660,444 1662,442 1663,442 1665,440 1666,440 1668,438 1669,438 1671,436 1672,436 1675,433 1676,433 1688,421 1688,420 1692,416 1692,415 1694,413 1694,412 1697,409 1697,408 1698,407 1698,406 1699,405 1699,404 1701,402 1701,401 1702,400 1702,399 1703,398 1703,397 1704,396 1704,394 1705,393 1705,392 1706,391 1706,390 1707,389 1707,387 1708,386 1708,384 1709,383 1709,380 1710,379 1710,377 1711,376 1711,373 1712,372 1712,369 1713,368 1713,362 1714,361 1714,350 1715,349 1715,329 1714,328 1714,317 1713,316 1713,310 1712,309 1712,306 1711,305 1711,302 1710,301 1710,298 1709,297 1709,295 1708,294 1708,292 1707,291 1707,289 1706,288 1706,287 1705,286 1705,285 1704,284 1704,282 1703,281 1703,280 1702,279 1702,278 1701,277 1701,276 1699,274 1699,273 1698,272 1698,271 1697,270 1697,269 1694,266 1694,265 1692,263 1692,262 1688,258 1688,257 1676,245 1675,245 1673,243 1672,243 1669,240 1668,240 1666,238 1665,238 1663,236 1662,236 1660,234 1659,234 1658,233 1657,233 1656,232 1655,232 1654,231 1653,231 1652,230 1651,230 1650,229 1648,229 1647,228 1646,228 1645,227 1644,227 1643,226 1641,226 1640,225 1638,225 1637,224 1635,224 1634,223 1631,223 1630,222 1628,222 1627,221 1624,221 1623,220 1620,220 1619,219 1614,219 1613,218 1606,218 1605,217" /><polygon fill="rgb(210,190,150)" points="650,216 650,462 707,462 707,362 708,361 801,361 802,362 802,462 859,462 860,461 860,217 802,217 802,310 801,311 709,311 707,309 707,216 706,217 651,217" /><polygon fill="rgb(210,190,150)" points="1139,214 1139,268 1197,268 1197,214" /><polygon fill="rgb(210,190,150)" points="1068,214 1068,461 1069,462 1123,462 1123,214" /><polygon fill="rgb(210,190,150)" points="475,143 475,306 476,306 478,304 479,304 481,302 482,302 484,300 485,300 487,298 488,298 490,296 491,296 493,294 494,294 496,292 497,292 499,290 500,290 502,288 503,288 505,286 506,286 508,284 509,284 511,282 512,282 514,280 515,280 517,278 518,278 520,276 521,276 523,274 524,274 526,272 527,272 529,270 530,270 532,268 533,268 535,266 535,143" /><polygon fill="rgb(210,190,150)" points="142,143 142,266 143,267 144,267 147,270 148,270 150,272 151,272 152,273 153,273 156,276 157,276 158,277 159,277 162,280 163,280 165,282 166,282 167,283 168,283 171,286 172,286 173,287 174,287 176,289 177,289 180,292 181,292 182,293 183,293 185,295 186,295 189,298 190,298 191,299 192,299 195,302 196,302 198,304 199,304 200,305 201,305 203,307 203,288 204,287 396,287 396,277 397,276 452,276 452,268 204,268 203,267 203,246 204,245 340,245 340,236 341,235 396,235 396,226 204,226 203,225 203,204 204,203 282,203 282,194 283,193 340,193 340,185 204,185 203,184 203,163 204,162 242,162 242,153 244,151 282,151 282,143" /></svg>