<svg width="939" height="270" viewBox="0 0 939 270" fill="none" xmlns="http://www.w3.org/2000/svg">
<path d="M119.121 65.4629C124.925 67.1866 130.82 68.366 136.805 69.1825C138.347 69.3639 139.888 69.5454 141.339 69.7268C141.43 69.1825 141.521 68.5474 141.611 68.0031C142.246 64.1021 142.972 60.1103 143.606 56.2093C145.057 47.4093 146.599 38.5187 149.41 30.0816C149.954 28.5393 150.499 26.997 151.043 25.4548C147.415 24.9104 143.697 24.5476 140.07 24.3661C139.163 24.2754 138.256 24.2754 137.44 24.2754C136.805 29.3558 135.535 34.3455 133.722 39.063C131.183 45.8671 127.918 52.399 123.928 58.5681C122.477 60.8361 120.844 63.1042 119.121 65.4629Z" fill="url(#paint0_linear_132_512)"/>
<path d="M139.526 86.2378C139.707 83.4254 139.888 80.6131 140.251 77.8007C136.261 77.4378 132.361 76.8028 128.462 76.077C123.474 75.1698 118.487 73.8997 113.68 72.3574C112.773 73.4461 111.776 74.5347 110.778 75.6234C104.34 82.6997 97.085 88.9594 89.1047 94.2213C86.8376 95.7636 84.4797 97.2151 82.0312 98.5759C83.4822 105.108 84.0263 112.003 83.4822 118.625C83.3008 121.347 82.9381 124.159 82.394 126.881C83.7543 126.7 85.0239 126.518 86.3841 126.337C104.793 123.796 123.021 120.258 140.977 115.541C139.526 105.834 138.981 96.0357 139.526 86.2378Z" fill="url(#paint1_linear_132_512)"/>
<path d="M74.4137 150.831C73.8696 152.101 73.2348 153.281 72.6907 154.46C75.2299 155.367 77.769 156.365 80.2175 157.544C88.5606 161.445 96.3595 166.617 103.07 172.876C103.252 173.058 103.524 173.239 103.705 173.421C115.585 157.726 127.011 141.578 137.349 124.885C118.577 129.512 99.6241 132.959 80.3989 135.227C78.7666 140.58 76.7715 145.751 74.4137 150.831Z" fill="url(#paint2_linear_132_512)"/>
<path d="M149.501 70.2709C154.942 70.4523 160.474 70.3616 165.915 69.908C168.273 64.1926 170.449 58.4771 172.535 52.5802C174.711 46.139 176.797 39.6071 178.157 32.8937C177.341 32.5308 176.434 32.1679 175.618 31.805C170.358 29.7184 164.917 27.9947 159.295 26.7246C156.212 34.3452 154.398 42.5101 152.856 50.5843C152.131 54.4854 151.496 58.4771 150.861 62.3781C150.408 65.0998 149.954 67.64 149.501 70.2709Z" fill="url(#paint3_linear_132_512)"/>
<path d="M153.763 78.5261C151.949 78.5261 150.226 78.4354 148.413 78.3446C147.415 87.7797 147.234 97.2147 148.141 106.559C153.31 97.3054 158.025 87.8704 162.378 78.2539C159.476 78.4353 156.574 78.5261 153.763 78.5261Z" fill="url(#paint4_linear_132_512)"/>
<path d="M175.165 68.7295C183.871 67.1873 192.395 64.7378 200.647 61.2904C204.637 59.5667 208.537 57.6615 212.255 55.5749C207.539 50.9481 202.37 46.6842 196.748 42.9647C193.302 40.6059 189.674 38.5193 185.775 36.5234C183.417 47.0471 179.79 57.2986 175.8 67.3687C175.528 67.7316 175.346 68.2759 175.165 68.7295Z" fill="url(#paint5_linear_132_512)"/>
<path d="M177.523 76.5307C175.528 76.8935 173.532 77.1657 171.537 77.4379C168.817 83.8791 165.824 90.2296 162.741 96.4894C160.111 101.66 157.391 106.741 154.579 111.731C169.633 107.285 184.415 102.114 198.924 96.0358C209.988 91.3183 220.779 86.1471 231.39 80.4317C230.755 79.343 230.12 78.2544 229.485 77.2564C226.22 71.9039 222.412 66.642 217.968 61.6523C214.069 63.9204 209.988 66.007 205.816 67.8214C196.748 71.8131 187.317 74.8977 177.523 76.5307Z" fill="url(#paint6_linear_132_512)"/>
<path d="M150.408 121.437C152.04 128.604 154.217 135.589 157.028 142.394C160.927 151.556 165.915 160.175 171.9 168.158C172.172 168.521 172.535 168.975 172.807 169.338C177.523 161.717 183.054 154.55 189.13 147.928C196.748 139.672 205.272 132.233 214.613 126.064C223.591 120.167 233.203 115.268 243.269 111.458C242.453 107.919 241.546 104.381 240.367 100.934C238.916 96.4886 237.103 92.0432 235.108 87.7793C228.578 91.3174 222.049 94.5834 215.338 97.6679C194.39 107.375 172.626 115.268 150.408 121.437Z" fill="url(#paint7_linear_132_512)"/>
<path d="M244.811 119.533C243.541 119.987 242.181 120.531 240.912 121.075C230.483 125.521 220.689 131.236 211.711 138.04C202.642 145.117 194.571 153.282 187.498 162.354C184.233 166.618 181.241 171.063 178.43 175.69C184.415 182.131 191.035 188.028 198.017 193.471C204.637 198.552 211.53 203.269 218.422 207.896C222.684 203.088 226.493 197.917 229.848 192.473C233.929 185.851 237.375 178.502 240.095 170.609C242.544 163.352 244.358 155.459 245.264 147.113C246.262 138.131 246.081 128.787 244.811 119.533Z" fill="url(#paint8_linear_132_512)"/>
<path d="M154.126 155.186C149.954 147.021 146.508 138.402 144.06 129.512C133.359 146.658 121.57 163.169 109.418 179.227C111.05 181.041 112.683 182.947 114.224 184.943C117.67 189.297 120.935 193.924 123.837 198.732C126.83 203.722 129.46 208.984 131.727 214.336C136.08 213.248 140.523 212.431 144.967 212.068C147.143 211.887 149.32 211.796 151.496 211.796C152.766 211.796 154.035 211.796 155.214 211.887C156.121 207.804 157.209 203.813 158.479 199.821C161.109 191.837 164.464 184.126 168.454 176.778C162.922 170.064 158.116 162.897 154.126 155.186Z" fill="url(#paint9_linear_132_512)"/>
<path d="M153.672 219.961C152.947 219.961 152.312 219.961 151.587 219.961C148.413 219.961 145.329 220.142 142.155 220.596C139.616 220.959 137.168 221.412 134.719 222.048C135.445 223.953 136.08 225.858 136.714 227.763C138.619 233.66 140.16 239.738 141.521 245.817C145.42 245.544 149.41 245.091 153.491 244.456C153.219 243.367 153.038 242.369 152.856 241.28C152.222 236.654 152.222 232.027 152.675 227.309C152.856 224.769 153.219 222.41 153.672 219.961Z" fill="url(#paint10_linear_132_512)"/>
<path d="M198.652 204.085C190.037 197.734 181.694 191.021 174.258 183.219C172.716 186.213 171.265 189.297 169.905 192.382C167.185 199.004 165.008 205.808 163.376 212.794C168.001 213.61 172.444 214.971 176.797 216.604C182.057 218.691 187.226 221.14 192.123 224.134C193.665 225.041 195.206 226.039 196.748 227.037C196.839 226.946 197.02 226.856 197.111 226.765C202.733 222.955 207.993 218.691 212.799 213.883C212.618 213.701 212.346 213.61 212.164 213.429C207.539 210.526 203.005 207.351 198.652 204.085Z" fill="url(#paint11_linear_132_512)"/>
<path d="M161.743 220.777C161.471 222.32 161.199 223.771 161.018 225.313C160.474 230.031 160.202 234.748 160.746 239.466C160.927 240.555 161.109 241.643 161.381 242.732C170.903 240.373 180.243 236.744 188.949 231.845C184.868 229.396 180.697 227.128 176.344 225.223C171.628 223.318 166.731 221.775 161.743 220.777Z" fill="url(#paint12_linear_132_512)"/>
<path d="M86.8376 195.285L86.7469 195.376C86.5655 195.648 86.3841 195.829 86.2028 196.102C86.4748 195.829 86.6562 195.557 86.8376 195.285Z" fill="url(#paint13_linear_132_512)"/>
<path d="M97.6291 181.224C97.9918 180.77 98.2639 180.407 98.6266 179.954C96.5409 177.958 94.3644 176.053 92.0066 174.238C86.4748 170.065 80.5803 166.618 74.2323 163.805C72.4186 163.08 70.6049 162.354 68.7006 161.719C65.3452 167.616 61.7178 173.331 57.7277 178.865C53.1934 185.306 48.2964 191.475 43.3994 197.644C44.5783 199.368 45.9386 201.183 47.3896 203.088C52.1052 209.166 57.4556 214.791 63.3501 219.78C63.8036 220.143 64.1663 220.506 64.6197 220.869C72.6907 213.067 79.8548 204.267 86.6562 195.376C90.465 190.659 94.0017 185.941 97.6291 181.224Z" fill="url(#paint14_linear_132_512)"/>
<path d="M123.837 216.695C119.847 207.713 114.859 199.186 108.874 191.384C107.423 189.478 105.881 187.664 104.249 185.85C103.433 186.848 102.707 187.845 101.891 188.843C93.3669 199.911 85.1146 211.252 75.5019 221.412C74.051 222.864 72.6907 224.406 71.2397 225.767C75.0485 228.489 79.1293 230.938 83.2102 233.115C85.84 234.476 88.5606 235.837 91.2811 237.016C91.3718 236.926 91.4625 236.926 91.4625 236.835C94.0924 234.386 96.9036 232.027 99.7149 229.849C103.614 226.765 107.695 224.043 112.139 221.685C116.038 219.87 119.847 218.146 123.837 216.695Z" fill="url(#paint15_linear_132_512)"/>
<path d="M122.477 225.948C116.492 228.579 110.869 231.754 105.609 235.746C103.705 237.198 101.801 238.74 99.9869 240.373C101.801 241.008 103.614 241.552 105.428 242.006C112.955 244.093 120.935 245.363 129.278 245.816C130.548 245.907 131.817 245.907 133.178 245.907C131.455 238.559 129.46 231.301 126.92 224.225C125.379 224.769 123.928 225.404 122.477 225.948Z" fill="url(#paint16_linear_132_512)"/>
<path d="M56.3674 129.33C59.7227 129.058 63.0781 128.786 66.3427 128.514C68.8819 128.332 71.4211 128.06 73.8696 127.788C74.323 125.883 74.6858 123.887 74.9578 121.982C75.5926 116.448 75.6833 111.004 74.9578 105.47C74.7765 104.472 74.6858 103.474 74.4137 102.477C68.8819 105.198 63.0781 107.376 57.1835 109.19C47.1175 112.184 36.598 113.907 26.1693 113.907C24.9903 119.804 24.2649 125.792 24.0835 131.78C31.6104 131.598 39.1372 130.963 46.5734 130.237C49.9287 129.874 53.1934 129.602 56.3674 129.33Z" fill="url(#paint17_linear_132_512)"/>
<path d="M53.2841 149.834C57.1835 150.378 60.9923 151.013 64.8011 152.011C66.252 149.199 67.5216 146.386 68.7912 143.483C69.7887 141.034 70.6956 138.584 71.6024 136.135C70.4235 136.225 69.2446 136.407 67.975 136.498C62.0805 137.042 56.186 137.496 50.2914 138.04C44.3969 138.584 38.5024 139.219 32.5172 139.582C29.7966 139.764 27.0761 139.854 24.2648 139.945C24.4462 143.483 24.7183 147.112 25.2624 150.65C25.4437 150.65 25.6251 150.559 25.7158 150.559C31.1569 149.652 36.598 149.108 42.1298 149.108C45.8479 149.108 49.566 149.38 53.2841 149.834Z" fill="url(#paint18_linear_132_512)"/>
<path d="M60.6296 159.451C58.1811 158.906 55.6419 158.362 53.1027 157.999C49.3846 157.546 45.5759 157.273 41.8578 157.273C38.049 157.273 34.2402 157.546 30.4315 157.999C29.1619 158.181 27.8923 158.362 26.6227 158.634C26.7134 158.906 26.7134 159.269 26.804 159.541C28.4364 167.162 31.1569 174.873 34.7843 182.675C35.9632 185.216 37.3235 187.756 38.7745 190.387C40.4975 188.3 42.1298 186.123 43.7622 184.036C49.9287 176.143 55.6419 167.979 60.6296 159.451Z" fill="url(#paint19_linear_132_512)"/>
<path d="M92.9135 52.7617C97.8105 56.3906 103.07 59.3844 108.693 61.7431C109.509 62.106 110.234 62.3782 111.05 62.6504C111.05 62.5596 111.141 62.5596 111.141 62.4689C116.492 55.4834 121.117 47.9535 124.653 39.7886C126.739 34.7082 128.371 29.537 129.187 24.0938C129.006 24.0938 128.825 24.0938 128.643 24.0938C120.391 24.6381 112.229 25.9989 104.521 28.2669C97.085 30.4443 89.7395 33.4381 82.5754 37.3391C81.8499 37.702 81.1244 38.1556 80.3989 38.5185C81.3965 40.2422 82.4847 41.9659 83.7543 43.5989C86.3841 47.137 89.4674 50.1308 92.9135 52.7617Z" fill="url(#paint20_linear_132_512)"/>
<path d="M68.8819 71.2688C71.6025 74.6255 74.0509 78.1637 76.046 81.974C77.4063 84.6956 78.6759 87.508 79.7641 90.3203C83.7543 87.9616 87.6537 85.3307 91.3718 82.5183C96.4502 78.5266 101.166 73.9905 105.519 69.1823C104.884 68.9101 104.249 68.6379 103.705 68.3658C96.0874 65.0091 88.9233 60.5637 82.8474 54.7576C79.8548 51.8545 77.1342 48.6792 74.8671 45.1411C74.4137 44.4153 73.9603 43.6895 73.5068 42.873C69.9701 45.3225 66.4334 47.9534 62.9874 50.9473C60.7202 52.8524 58.5438 54.939 56.2767 57.207C60.9016 61.5617 64.9824 66.3699 68.8819 71.2688Z" fill="url(#paint21_linear_132_512)"/>
<path d="M65.98 97.3964C68.1565 96.4892 70.3329 95.4005 72.5093 94.3119C72.0559 92.9511 71.6025 91.5902 71.0584 90.2294C69.0633 85.6934 66.6148 81.4294 63.6222 77.4377C59.7227 72.448 55.5512 67.5491 50.8356 63.2852C49.566 64.7367 48.2964 66.3697 46.9361 68.1841C42.2205 74.3532 38.1397 81.1573 34.6937 88.415C32.0638 93.949 29.978 99.7552 28.3457 105.652C31.8824 105.561 35.4191 105.289 38.8652 104.836C48.115 103.565 57.2742 101.025 65.98 97.3964Z" fill="url(#paint22_linear_132_512)"/>
<path d="M372.879 162.707C372.879 151.007 370.563 141.737 365.93 134.899C361.297 128.061 353.968 124.642 343.943 124.642C339.386 124.642 335.095 125.326 331.07 126.694C327.045 128.061 323.817 129.581 321.387 131.253V199.861C323.361 200.316 325.906 200.734 329.019 201.114C332.133 201.494 335.893 201.684 340.298 201.684C350.475 201.684 358.449 198.227 364.221 191.313C369.993 184.399 372.879 174.864 372.879 162.707ZM401.132 163.163C401.132 172.736 399.727 181.36 396.917 189.034C394.106 196.708 390.081 203.28 384.841 208.75C379.6 214.22 373.259 218.399 365.816 221.286C358.373 224.174 349.943 225.617 340.525 225.617C331.412 225.617 322.716 224.933 314.438 223.566C306.159 222.198 299.286 220.679 293.818 219.007V50.336L321.387 45.7773V107.547C324.576 105.876 328.488 104.356 333.121 102.989C337.753 101.621 342.88 100.937 348.5 100.937C356.854 100.937 364.335 102.419 370.942 105.382C377.55 108.345 383.056 112.562 387.461 118.032C391.866 123.503 395.246 130.075 397.6 137.749C399.954 145.422 401.132 153.894 401.132 163.163ZM471.079 224.933C462.877 224.781 456.08 223.87 450.687 222.198C445.295 220.527 441.004 218.133 437.814 215.018C434.624 211.903 432.384 208.028 431.093 203.394C429.802 198.759 429.156 193.478 429.156 187.552V50.336L456.725 45.7773V182.31C456.725 185.653 456.991 188.464 457.523 190.743C458.054 193.023 459.004 194.96 460.371 196.556C461.738 198.151 463.598 199.367 465.953 200.203C468.307 201.038 471.307 201.684 474.953 202.14L471.079 224.933ZM539.204 203.28C547.71 203.28 554.166 202.824 558.571 201.912V171.369C557.052 170.913 554.849 170.457 551.963 170.001C549.077 169.545 545.888 169.317 542.394 169.317C539.356 169.317 536.28 169.545 533.166 170.001C530.053 170.457 527.242 171.293 524.736 172.509C522.23 173.724 520.217 175.434 518.698 177.637C517.179 179.84 516.42 182.614 516.42 185.957C516.42 192.491 518.471 197.011 522.572 199.519C526.673 202.026 532.217 203.28 539.204 203.28ZM536.926 100.481C546.039 100.481 553.71 101.621 559.938 103.9C566.166 106.18 571.14 109.371 574.862 113.474C578.583 117.577 581.241 122.553 582.836 128.403C584.431 134.254 585.228 140.674 585.228 147.664V219.919C580.975 220.831 574.558 221.932 565.976 223.224C557.394 224.515 547.71 225.161 536.926 225.161C529.787 225.161 523.255 224.477 517.331 223.11C511.407 221.742 506.357 219.539 502.18 216.5C498.003 213.461 494.737 209.51 492.383 204.647C490.028 199.785 488.851 193.782 488.851 186.64C488.851 179.802 490.18 174.028 492.838 169.317C495.496 164.607 499.104 160.77 503.661 157.807C508.218 154.844 513.496 152.716 519.496 151.425C525.496 150.133 531.761 149.487 538.293 149.487C541.331 149.487 544.521 149.677 547.862 150.057C551.204 150.437 554.773 151.083 558.571 151.995V147.436C558.571 144.245 558.191 141.206 557.432 138.318C556.672 135.431 555.343 132.886 553.444 130.683C551.546 128.479 549.039 126.77 545.926 125.554C542.812 124.339 538.9 123.731 534.192 123.731C527.812 123.731 521.964 124.187 516.648 125.098C511.331 126.01 507.002 127.074 503.661 128.289L500.243 105.952C503.737 104.736 508.825 103.521 515.509 102.305C522.192 101.089 529.331 100.481 536.926 100.481ZM661.784 142.421L687.074 103.445H716.01L676.821 159.744C685.023 170.381 692.884 181.132 700.403 191.997C707.922 202.862 714.111 213.081 718.972 222.654H689.125C687.758 219.767 685.973 216.462 683.77 212.739C681.568 209.016 679.213 205.141 676.707 201.114C674.201 197.087 671.581 193.099 668.847 189.148C666.113 185.197 663.454 181.474 660.872 177.979C655.556 184.817 650.353 192.377 645.265 200.658C640.176 208.94 635.961 216.272 632.62 222.654H604.367C606.646 218.095 609.38 213.233 612.57 208.066C615.759 202.9 619.177 197.619 622.822 192.225C626.468 186.83 630.227 181.436 634.101 176.042C637.974 170.647 641.809 165.519 645.607 160.656L606.19 103.445H636.493L661.784 142.421ZM732.87 163.619C732.87 153.134 734.427 143.941 737.541 136.039C740.655 128.137 744.794 121.565 749.959 116.323C755.123 111.08 761.047 107.13 767.73 104.47C774.414 101.811 781.249 100.481 788.236 100.481C804.641 100.481 817.438 105.572 826.628 115.753C835.817 125.934 840.412 141.13 840.412 161.34C840.412 162.859 840.374 164.569 840.298 166.468C840.222 168.368 840.108 170.077 839.956 171.597H761.351C762.11 181.17 765.49 188.578 771.49 193.82C777.49 199.063 786.186 201.684 797.578 201.684C804.261 201.684 810.375 201.076 815.919 199.861C821.463 198.645 825.83 197.353 829.02 195.986L832.665 218.551C831.146 219.311 829.058 220.109 826.4 220.945C823.742 221.78 820.704 222.54 817.286 223.224C813.868 223.908 810.185 224.477 806.236 224.933C802.286 225.389 798.261 225.617 794.16 225.617C783.679 225.617 774.566 224.06 766.819 220.945C759.072 217.829 752.693 213.499 747.68 207.952C742.668 202.406 738.946 195.872 736.516 188.35C734.086 180.828 732.87 172.585 732.87 163.619ZM812.843 151.311C812.843 147.512 812.311 143.903 811.248 140.484C810.185 137.065 808.628 134.102 806.577 131.594C804.527 129.087 802.021 127.112 799.059 125.668C796.097 124.225 792.565 123.503 788.464 123.503C784.211 123.503 780.489 124.301 777.3 125.896C774.11 127.492 771.414 129.581 769.211 132.164C767.009 134.748 765.3 137.711 764.085 141.054C762.87 144.397 762.034 147.816 761.579 151.311H812.843ZM911.043 224.933C902.841 224.781 896.044 223.87 890.651 222.198C885.259 220.527 880.968 218.133 877.778 215.018C874.588 211.903 872.348 208.028 871.057 203.394C869.766 198.759 869.12 193.478 869.12 187.552V50.336L896.689 45.7773V182.31C896.689 185.653 896.955 188.464 897.487 190.743C898.018 193.023 898.968 194.96 900.335 196.556C901.702 198.151 903.562 199.367 905.917 200.203C908.271 201.038 911.271 201.684 914.917 202.14L911.043 224.933Z" fill="#6B716A"/>
<defs>
<linearGradient id="paint0_linear_132_512" x1="119.121" y1="24.2754" x2="151.043" y2="24.2754" gradientUnits="userSpaceOnUse">
<stop stop-color="#6B716A"/>
<stop offset="1" stop-color="#67625A"/>
</linearGradient>
<linearGradient id="paint1_linear_132_512" x1="82.0312" y1="72.3574" x2="140.977" y2="72.3574" gradientUnits="userSpaceOnUse">
<stop stop-color="#6B716A"/>
<stop offset="1" stop-color="#67625A"/>
</linearGradient>
<linearGradient id="paint2_linear_132_512" x1="72.6907" y1="124.885" x2="137.349" y2="124.885" gradientUnits="userSpaceOnUse">
<stop stop-color="#6B716A"/>
<stop offset="1" stop-color="#67625A"/>
</linearGradient>
<linearGradient id="paint3_linear_132_512" x1="149.501" y1="26.7246" x2="178.157" y2="26.7246" gradientUnits="userSpaceOnUse">
<stop stop-color="#6B716A"/>
<stop offset="1" stop-color="#67625A"/>
</linearGradient>
<linearGradient id="paint4_linear_132_512" x1="147.552" y1="78.2539" x2="162.378" y2="78.2539" gradientUnits="userSpaceOnUse">
<stop stop-color="#6B716A"/>
<stop offset="1" stop-color="#67625A"/>
</linearGradient>
<linearGradient id="paint5_linear_132_512" x1="175.165" y1="36.5234" x2="212.255" y2="36.5234" gradientUnits="userSpaceOnUse">
<stop stop-color="#6B716A"/>
<stop offset="1" stop-color="#67625A"/>
</linearGradient>
<linearGradient id="paint6_linear_132_512" x1="154.579" y1="61.6523" x2="231.39" y2="61.6523" gradientUnits="userSpaceOnUse">
<stop stop-color="#6B716A"/>
<stop offset="1" stop-color="#67625A"/>
</linearGradient>
<linearGradient id="paint7_linear_132_512" x1="150.408" y1="87.7793" x2="243.269" y2="87.7793" gradientUnits="userSpaceOnUse">
<stop stop-color="#6B716A"/>
<stop offset="1" stop-color="#67625A"/>
</linearGradient>
<linearGradient id="paint8_linear_132_512" x1="178.43" y1="119.533" x2="245.904" y2="119.533" gradientUnits="userSpaceOnUse">
<stop stop-color="#6B716A"/>
<stop offset="1" stop-color="#67625A"/>
</linearGradient>
<linearGradient id="paint9_linear_132_512" x1="109.418" y1="129.512" x2="168.454" y2="129.512" gradientUnits="userSpaceOnUse">
<stop stop-color="#6B716A"/>
<stop offset="1" stop-color="#67625A"/>
</linearGradient>
<linearGradient id="paint10_linear_132_512" x1="134.719" y1="219.961" x2="153.672" y2="219.961" gradientUnits="userSpaceOnUse">
<stop stop-color="#6B716A"/>
<stop offset="1" stop-color="#67625A"/>
</linearGradient>
<linearGradient id="paint11_linear_132_512" x1="163.376" y1="183.219" x2="212.799" y2="183.219" gradientUnits="userSpaceOnUse">
<stop stop-color="#6B716A"/>
<stop offset="1" stop-color="#67625A"/>
</linearGradient>
<linearGradient id="paint12_linear_132_512" x1="160.449" y1="220.777" x2="188.949" y2="220.777" gradientUnits="userSpaceOnUse">
<stop stop-color="#6B716A"/>
<stop offset="1" stop-color="#67625A"/>
</linearGradient>
<linearGradient id="paint13_linear_132_512" x1="86.2028" y1="195.285" x2="86.8376" y2="195.285" gradientUnits="userSpaceOnUse">
<stop stop-color="#6B716A"/>
<stop offset="1" stop-color="#67625A"/>
</linearGradient>
<linearGradient id="paint14_linear_132_512" x1="43.3994" y1="161.719" x2="98.6266" y2="161.719" gradientUnits="userSpaceOnUse">
<stop stop-color="#6B716A"/>
<stop offset="1" stop-color="#67625A"/>
</linearGradient>
<linearGradient id="paint15_linear_132_512" x1="71.2397" y1="185.85" x2="123.837" y2="185.85" gradientUnits="userSpaceOnUse">
<stop stop-color="#6B716A"/>
<stop offset="1" stop-color="#67625A"/>
</linearGradient>
<linearGradient id="paint16_linear_132_512" x1="99.9869" y1="224.225" x2="133.178" y2="224.225" gradientUnits="userSpaceOnUse">
<stop stop-color="#6B716A"/>
<stop offset="1" stop-color="#67625A"/>
</linearGradient>
<linearGradient id="paint17_linear_132_512" x1="24.0835" y1="102.477" x2="75.4685" y2="102.477" gradientUnits="userSpaceOnUse">
<stop stop-color="#6B716A"/>
<stop offset="1" stop-color="#67625A"/>
</linearGradient>
<linearGradient id="paint18_linear_132_512" x1="24.2648" y1="136.135" x2="71.6024" y2="136.135" gradientUnits="userSpaceOnUse">
<stop stop-color="#6B716A"/>
<stop offset="1" stop-color="#67625A"/>
</linearGradient>
<linearGradient id="paint19_linear_132_512" x1="26.6227" y1="157.273" x2="60.6296" y2="157.273" gradientUnits="userSpaceOnUse">
<stop stop-color="#6B716A"/>
<stop offset="1" stop-color="#67625A"/>
</linearGradient>
<linearGradient id="paint20_linear_132_512" x1="80.3989" y1="24.0938" x2="129.188" y2="24.0938" gradientUnits="userSpaceOnUse">
<stop stop-color="#6B716A"/>
<stop offset="1" stop-color="#67625A"/>
</linearGradient>
<linearGradient id="paint21_linear_132_512" x1="56.2767" y1="42.873" x2="105.519" y2="42.873" gradientUnits="userSpaceOnUse">
<stop stop-color="#6B716A"/>
<stop offset="1" stop-color="#67625A"/>
</linearGradient>
<linearGradient id="paint22_linear_132_512" x1="28.3457" y1="63.2852" x2="72.5093" y2="63.2852" gradientUnits="userSpaceOnUse">
<stop stop-color="#6B716A"/>
<stop offset="1" stop-color="#67625A"/>
</linearGradient>
</defs>
</svg>
