<svg xmlns="http://www.w3.org/2000/svg" viewBox="20 30 1120 1120" fill="currentColor">
  <style>
    @media (prefers-color-scheme: light) { svg { color: #0a0a0a; } }
    @media (prefers-color-scheme: dark) { svg { color: #fafafa; } }
  </style>
  <g transform="matrix(1,0,0,1,-107,-687)">
    <path style="fill-rule:nonzero" d="M223.381,1819.588C193.728,1810.745 149.802,1765.865 141.607,1736.035C137.498,1721.079 134.8,1651.288 134.861,1561.558C134.948,1430.345 136.355,1408.95 146.311,1387.03C160.583,1355.617 195.8,1324.301 226.431,1315.799C239.782,1312.088 313.709,1309.245 397.25,1309.225L544.531,1309.201L577.861,1326.615C602.126,1339.287 616.3,1352.288 629.98,1374.414L648.77,1404.81L648.77,1729.808L631.468,1759.247C620.248,1778.329 603.819,1794.762 584.733,1805.98L555.3,1823.28L399.518,1824.448C312.615,1825.082 234.735,1822.952 223.379,1819.57L223.379,1819.588L223.381,1819.588ZM497.592,1732.717C402.453,1688.879 300.384,1604.152 240.311,1519.141L210.336,1476.721L205.912,1506.23C200.59,1541.718 211.564,1606.918 228.421,1639.966C243.709,1669.932 280.035,1705.497 312.281,1722.079C354.5,1743.782 390.425,1750.495 464.948,1750.596L536.608,1750.655L497.592,1732.717ZM576.502,1626.055C596.435,1568.878 576.741,1523.096 511.842,1475.773C487.765,1458.214 453.511,1430.375 435.723,1413.907L403.382,1383.963L283.009,1383.963L316.283,1422.91C370.741,1486.651 449.051,1561.253 507.088,1604.674C537.034,1627.08 563.364,1645.472 565.599,1645.544C567.834,1645.591 572.741,1636.849 576.504,1626.054L576.502,1626.055ZM812.209,1818.363C778.825,1807.635 745.963,1779.192 732.372,1749.262C721.966,1726.351 720.705,1706.728 720.705,1567.791C720.705,1429.551 722.004,1409.15 732.226,1386.645C746.279,1355.704 783.774,1323.595 816.039,1314.874C830.533,1310.956 899.405,1309.171 990.513,1310.354C1136.682,1312.253 1141.811,1312.744 1167.44,1327.426C1228.6,1362.457 1239.754,1405.217 1236.666,1592.852C1234.594,1719.081 1233.923,1725.072 1218.591,1754.852C1207.297,1776.794 1193.875,1791.22 1172.363,1804.522L1142.055,1823.27L988.882,1824.579C882.648,1825.474 828.508,1823.612 812.209,1818.349L812.209,1818.363ZM883.502,1743.824C888.82,1739.541 902.435,1722.015 913.758,1704.877C946.551,1655.247 1024.56,1583.394 1082.376,1549.589C1111.216,1532.723 1141.121,1515.133 1148.833,1510.498C1161.077,1503.141 1162.853,1496.928 1162.853,1461.429C1162.853,1426.589 1160.67,1418.606 1147.558,1405.495C1139.143,1397.085 1129.843,1390.199 1126.89,1390.199C1116.032,1390.199 990.141,1491.908 937.321,1543.356C869.141,1609.761 801.437,1693.776 801.437,1711.98C801.437,1741.572 858.704,1763.796 883.501,1743.823L883.502,1743.824ZM1125.303,1743.494C1137.222,1739.397 1150.483,1729.057 1154.807,1720.478C1164.266,1701.732 1165.389,1654.236 1156.506,1648.743C1149.592,1644.473 1085.448,1693.446 1051.028,1729.283L1029.554,1751.637L1066.608,1751.307C1086.985,1751.111 1113.401,1747.607 1125.306,1743.515L1125.303,1743.493L1125.303,1743.494ZM886.062,1422.055L929.18,1382.299L888.198,1385.456C803.314,1391.994 777.272,1423.613 792.803,1501.265L796.63,1520.398L819.786,1491.102C832.522,1474.992 862.346,1443.916 886.062,1422.055ZM202.603,1223.3C175.717,1209.254 166.086,1199.626 152.041,1172.736L134.691,1139.523L134.691,982.317C134.691,829.774 135.119,824.296 149.189,797.648C157.163,782.543 175.624,761.772 190.213,751.491L216.739,732.797L379.654,730.936C561.255,728.861 576.903,731.393 613.087,768.727C647.583,804.318 651.887,827.763 651.887,980.072C651.887,1057.922 648.968,1128.324 645.105,1143.664C636.348,1178.442 609.04,1211.218 575.152,1227.623C550.06,1239.77 537.754,1240.646 392.033,1240.646L235.815,1240.646L202.603,1223.299L202.603,1223.3ZM533.493,1163.963C564.521,1153.383 577.096,1125.167 577.079,1066.172L577.067,1019.437L563.9,1041.036C556.658,1052.916 525.843,1087.266 495.423,1117.369L440.113,1172.102L475.9,1171.769C495.583,1171.574 521.501,1168.074 533.496,1163.981L533.494,1163.962L533.493,1163.963ZM308.278,1115.207C376.507,1064.751 512.23,930.593 548.128,878.123C575.648,837.897 574.907,824.402 544.267,807.914C512.534,790.837 490.573,796.903 466.54,829.383C395.936,924.805 352.166,965.105 264.375,1015.517L212.581,1045.259L210.716,1091.545C209.058,1132.702 210.343,1139.042 222.311,1148.736C229.714,1154.735 238.566,1159.641 241.981,1159.641C245.397,1159.641 275.23,1139.648 308.277,1115.207L308.278,1115.207ZM288.915,848.657C313.762,827.069 334.092,806.89 334.092,803.816C334.092,796.859 296.418,797.021 259.543,804.135C224.196,810.955 209.467,828.515 209.467,863.835C209.467,878.598 211.228,895.263 213.379,900.87C216.924,910.108 218.532,909.978 230.515,899.486C237.788,893.117 264.069,870.244 288.916,848.655L288.916,848.656L288.915,848.657ZM798.322,1230.478C768.136,1214.367 740.002,1184.16 729.457,1156.555C721.234,1135.018 719.953,1104.871 721.591,971.281L723.546,811.728L742.24,785.203C752.521,770.615 773.292,752.155 788.397,744.18C815.099,730.083 820.284,729.685 975.335,729.817C1116.102,729.929 1137.74,731.287 1159.789,741.302C1192.13,755.995 1223.231,791.739 1229.532,821.459C1232.269,834.384 1234.511,910.936 1234.511,991.575C1234.511,1136.579 1234.328,1138.53 1218.591,1169.11C1208.965,1187.806 1192.131,1207.439 1176.011,1218.781L1149.346,1237.529L983.178,1238.994C840.814,1240.221 814.338,1239.018 798.321,1230.477L798.321,1230.476L798.322,1230.478ZM1074.451,1166.722C1080.648,1162.793 1076.868,1154.914 1058.873,1134.256C980.843,1044.673 905.318,975.447 832.878,927.108C792.463,900.14 789.206,902.646 789.071,960.817C788.966,1020.154 805.905,1049.608 856.109,1077.157C877.294,1088.78 903.632,1109.665 914.644,1123.569C941.309,1157.238 974.853,1171.816 1025.764,1171.872C1048.042,1171.884 1069.948,1169.576 1074.451,1166.721L1074.451,1166.722ZM1166.164,1038.71C1174.632,970.94 1152.299,910.747 1100.128,860.726C1038.176,801.327 997.272,789.339 896.685,801.101L857.961,805.63L893.571,824.599C985.311,873.472 1079.667,957.342 1128.581,1033.49C1142.288,1054.832 1155.406,1072.318 1157.733,1072.348C1160.057,1072.372 1163.851,1057.241 1166.165,1038.71L1166.164,1038.71Z" />
  </g>
</svg>
