<svg viewBox="0 0 149.363 41.4148" fill="none" xmlns="http://www.w3.org/2000/svg">
<g id="Group 1197147015" transform="translate(0,41.4148) scale(1,-1)">
<g id="Dotfile">
<path id="Vector" d="M135.597 0.000183601C127.094 0.000183601 121.137 6.53618 121.137 14.576C121.137 23.1943 127.904 29.6146 135.712 29.6146C143.521 29.6146 149.363 23.657 149.363 16.0221C149.363 15.4436 149.363 14.6339 149.189 13.6506H126.284C126.747 8.15572 130.796 4.51176 135.886 4.51176C139.703 4.51176 143 6.53618 143.81 9.5439H149.074C147.743 3.99119 142.48 0.000183601 135.597 0.000183601ZM126.689 18.0465H143.926C143.694 21.9796 140.282 25.0452 135.712 25.0452C131.548 25.0452 127.904 22.3267 126.689 18.0465Z" fill="var(--fill-0, #101014)"/>
<path id="Vector_2" d="M116.976 41.1828V0.694338H111.654V41.1828H116.976Z" fill="var(--fill-0, #101014)"/>
<path id="Vector_3" d="M50.1201 4.95136e-07C41.9067 4.95136e-07 35.3707 6.42032 35.3707 14.8072C35.3707 23.0784 41.9067 29.6144 50.1201 29.6144C58.3335 29.6144 64.9273 23.0784 64.9273 14.8072C64.9273 6.42032 58.3335 4.95136e-07 50.1201 4.95136e-07ZM40.5764 14.8072C40.5764 9.19667 44.6831 4.91646 50.1201 4.91646C55.4993 4.91646 59.7217 9.19667 59.7217 14.8072C59.7217 20.3599 55.4993 24.698 50.1201 24.698C44.6831 24.698 40.5764 20.3599 40.5764 14.8072Z" fill="var(--fill-0, #101014)"/>
<path id="Vector_4" d="M12.8985 41.1826C24.4088 41.1826 32.9113 32.6222 32.9113 21.1119C32.9113 9.4281 24.4088 0.694155 12.8985 0.694155H0V41.1826H12.8985ZM5.61055 5.95766H13.2455C21.2275 5.95766 27.243 12.4937 27.243 21.1119C27.243 29.5567 21.3432 35.9191 13.2455 35.9191H5.61055V5.95766Z" fill="var(--fill-0, #101014)"/>
<path id="Union" d="M81.5453 0.7071L81.528 5.9609L76.8506 5.94037C75.461 5.93581 74.3333 7.06103 74.3333 8.45063V24.2933H80.9176V28.9204H74.3333V35.9565H69.0697V28.9204H64.2736V24.2933H69.0697V8.45063C69.0697 4.15257 72.5699 0.672233 76.8679 0.686348L81.5453 0.7071Z" fill="var(--fill-0, #101014)"/>
</g>
<path id="Union_2" d="M89.959 24.2935H100.309V0.6944H105.63V28.9206H89.959V33.4345C89.959 34.824 91.0733 35.9493 92.4629 35.9447L95.2644 35.9319V41.1857L92.4802 41.1987C88.1822 41.2128 84.6377 37.7325 84.6377 33.4345V28.9206H79.4352V24.2935H84.6377V0.6944H89.959V24.2935Z" fill="var(--fill-0, #101014)"/>
<path id="Ellipse 5026" d="M107.643 37.2612C107.643 34.9672 105.783 33.1076 103.489 33.1076C101.195 33.1076 99.3354 34.9672 99.3354 37.2612C99.3354 39.5552 101.195 41.4148 103.489 41.4148C105.783 41.4148 107.643 39.5552 107.643 37.2612Z" fill="var(--fill-0, #101014)"/>
</g>
</svg>
